<svg id="Group_15935" data-name="Group 15935" xmlns="http://www.w3.org/2000/svg" width="21.794" height="25.081" viewBox="0 0 21.794 25.081">
  <path id="Path_47446" data-name="Path 47446" d="M20.008,36.429V53.864A3.751,3.751,0,0,1,16.22,57.58H5.5a3.69,3.69,0,0,1-3.716-3.716V36.429H.715A.716.716,0,0,1,0,35.715.675.675,0,0,1,.715,35H21.079a.716.716,0,0,1,.715.715.7.7,0,0,1-.715.643Zm-16.792,0V53.864A2.3,2.3,0,0,0,5.5,56.151H16.22a2.318,2.318,0,0,0,2.358-2.287V36.429Z" transform="translate(0 -32.499)" fill="#707070"/>
  <path id="Path_47447" data-name="Path 47447" d="M90,105.715a.716.716,0,0,1,.715-.715.675.675,0,0,1,.715.715v11.147a.675.675,0,0,1-.715.715.716.716,0,0,1-.715-.715Z" transform="translate(-83.569 -97.497)" fill="#707070"/>
  <path id="Path_47448" data-name="Path 47448" d="M195,105.715a.675.675,0,0,1,.715-.715.716.716,0,0,1,.715.715v11.147a.716.716,0,0,1-.715.715.675.675,0,0,1-.715-.715Z" transform="translate(-181.066 -97.497)" fill="#707070"/>
  <path id="Path_47449" data-name="Path 47449" d="M142,105.715a.716.716,0,0,1,.715-.715.675.675,0,0,1,.715.715v11.147a.675.675,0,0,1-.715.715.716.716,0,0,1-.715-.715Z" transform="translate(-131.853 -97.497)" fill="#707070"/>
  <path id="Path_47450" data-name="Path 47450" d="M108.715,1.429a.715.715,0,0,1,0-1.429h4.859a.675.675,0,0,1,.715.715.675.675,0,0,1-.715.715Z" transform="translate(-100.283)" fill="#707070"/>
</svg>
