<svg xmlns="http://www.w3.org/2000/svg" width="20.754" height="20.754" viewBox="0 0 20.754 20.754">
  <path id="Icon_awesome-check-square" data-name="Icon awesome-check-square" d="M18.53,23H2.224A2.224,2.224,0,0,1,0,20.78V4.474A2.224,2.224,0,0,1,2.224,2.25H18.53a2.224,2.224,0,0,1,2.224,2.224V20.78A2.224,2.224,0,0,1,18.53,23ZM9.048,18.461l8.524-8.524a.741.741,0,0,0,0-1.048L16.524,7.841a.741.741,0,0,0-1.048,0L8.524,14.792,5.278,11.547a.741.741,0,0,0-1.048,0L3.182,12.6a.741.741,0,0,0,0,1.048L8,18.461a.741.741,0,0,0,1.048,0Z" transform="translate(0 -2.25)" fill="#005957"/>
</svg>
