<svg xmlns="http://www.w3.org/2000/svg" width="10.186" height="5.737" viewBox="0 0 10.186 5.737">
  <g id="Page-1" transform="translate(9.948 5.539) rotate(180)">
    <g id="Dribbble-Light-Preview" transform="translate(0 0.002)">
      <g id="icons" transform="translate(0 0)">
        <path id="arrow_up-_337_" data-name="arrow_up-[#337]" d="M213.564,6529.16h0a.513.513,0,0,0,0-.708l-4.01-4.155a.945.945,0,0,0-1.372,0l-4.04,4.183a.52.52,0,0,0,0,.708.48.48,0,0,0,.692.006l3.7-3.834a.477.477,0,0,1,.686,0l3.667,3.8a.468.468,0,0,0,.686,0" transform="translate(-204 -6524.002)" fill="#4cc682" stroke="#4cc682" stroke-width="0.4" fill-rule="evenodd"/>
      </g>
    </g>
  </g>
</svg>
