<svg xmlns="http://www.w3.org/2000/svg" width="159.473" height="33.792" viewBox="0 0 159.473 33.792">
  <g id="pensoft_logo_1_" data-name="pensoft logo (1)" transform="translate(-4.143 -10.424)">
    <g id="Group_15862" data-name="Group 15862" transform="translate(4.143 10.424)">
      <path id="Path_27187" data-name="Path 27187" d="M33.782,35.344a1.822,1.822,0,0,0,1.565.141,5.3,5.3,0,0,0,1.615-1.461,3.433,3.433,0,0,0-.109-4.8s-7.445-7.465-7.445-7.475c.566.021,1.156-1.577.2-2.6.015,0-7.268-7.213-7.254-7.213-1.143-1.031-1.71-1.511-2.583-1.511.01,0-1.135,0-1.135,0-.543,0-.807.442-.807.974v5.907a1.66,1.66,0,0,0,.429,1.413c0-.016-13.126,0-13.126,0a.85.85,0,0,0-.916.538.982.982,0,0,0,.138.963S13.29,32.727,13.29,32.727l6.487.009,4.667-3.393.413.463S7.745,42.387,7.76,42.38a1.031,1.031,0,0,0-.32,1.081c.114.286.349.754.781.754H17.7a1.666,1.666,0,0,0,1.707-1.56s0-2.653,0-2.666c0-.963.041-.955,1.283-.955h1.957c-.579.318-1.585.826-1.626.845-.057.026-.114.187-.179.393s-.358,1.205-.416,1.258a.5.5,0,0,0-.065.353c.013.147.031.412.031.412H37.221V41.029H21.964a2.4,2.4,0,0,1,.27-.443c.07-.055,2.348-1.2,3.021-1.551h.858a4,4,0,0,0,3.935-1.961c.023-.035,1.9-3.457,2.019-3.57a1.815,1.815,0,0,1,1.562-.671,1.661,1.661,0,0,1,1.395,1.2.824.824,0,0,1-.2.837A2.938,2.938,0,0,1,33.782,35.344Z" transform="translate(-4.143 -10.424)" fill="#457d5e" fill-rule="evenodd"/>
      <path id="Path_27188" data-name="Path 27188" d="M19.95,11.514c.841.3,5.59,5.282,5.584,5.282,2.214,2.251,3.553,3.143,2.693,3.947a8.278,8.278,0,0,0-5.655-2.14c.009,0-2.615,0-2.618,0a.95.95,0,0,1-1.078-1.09c-.01,0,0-6.089,0-6.089A3.416,3.416,0,0,1,19.95,11.514ZM5.54,19.8l8.283,11.6h5.39l5.294-3.871,1.846,2.36L8.74,42.907s7.967,0,7.96,0c.921,0,1.324-.3,1.331-1.127,0-.009.007-2.585,0-2.587,0-1.351.773-1.512,2.095-1.512H22.66s3.156-.016,3.149,0a4.184,4.184,0,0,0,2.635-.777,32.43,32.43,0,0,0,2.2-3.793A2.576,2.576,0,0,1,33.271,31.6a2.842,2.842,0,0,1,2.5,1.869,2.471,2.471,0,0,0,.107-3.6c.008-.013-8.436-8.221-8.407-8.221A8.481,8.481,0,0,0,22.074,19.8C22.087,19.8,5.54,19.8,5.54,19.8Z" transform="translate(-3.981 -10.309)" fill="#72bf44" fill-rule="evenodd"/>
      <circle id="Ellipse_24" data-name="Ellipse 24" cx="0.433" cy="0.433" r="0.433" transform="translate(31.198 20.843)" fill="#457d5e"/>
    </g>
    <g id="Group_15867" data-name="Group 15867" transform="translate(37.221 18.716)">
      <g id="Group_15866" data-name="Group 15866">
        <g id="Group_15865" data-name="Group 15865">
          <g id="Group_15863" data-name="Group 15863" transform="translate(3.669)">
            <path id="Path_27189" data-name="Path 27189" d="M37.071,22.56h5.4s4.871.008,4.871,0c3.236,0,2.446,2.366,1.909,2.957a12,12,0,0,1-3.906,2.759V23.454H39.968V38.171h5.37s-.017-4.791,0-4.791c.535-.212,3.807-1.97,5.184-2.787a12.02,12.02,0,0,0,4.129-4.018,6.171,6.171,0,0,0,.016-5.6,6.423,6.423,0,0,0-5.64-3.124c.033,0-9.057.018-9.057,0a1.989,1.989,0,0,0-2.108,1.53C37.843,19.4,37.071,22.56,37.071,22.56Z" transform="translate(-37.071 -17.854)" fill="#fff"/>
            <path id="Path_27190" data-name="Path 27190" d="M123.009,23.6a5.286,5.286,0,0,0-2.036-4.158,8.556,8.556,0,0,0-5.29-1.584H103.932s-7.636-.006-7.636,0c-1.85,0-4.22.385-5.224,2.169a4.971,4.971,0,0,0,.632,5.728c0-.009,5.385,6.055,5.357,6.073.586.837.24,1.643-.575,1.643H88.117V17.859H82.739v7.155l-5.915-7.158H51.146a5.283,5.283,0,0,1,3.5,4.7c0,.013.484,0,.484,0H55.8V38.171h12.88l1.228-4.7H61.178V30.259H67.3l1.116-4.686h-7.24V22.561H71.64V38.172h5.371V25.72l5.729,6.511v5.94s14.866,0,14.879,0c2.037,0,4.576-.369,5.654-2.146,1.047-1.722.595-3.832-.78-5.729.037,0-5.348-6.1-5.348-6.111-.531-.7-.671-1.646.7-1.646-.056.028,15.562.028,15.562,0,3.32,0,3.422,1.755,3.515,2.455a13.937,13.937,0,0,1-.475,6.082c-.7,2.2-1.953,2.777-2.733,2.777-.725,0-2.01-.489-2.707-2.833-.373-1.251-1.059-5.244-.083-7.588,0,.027-6.5.027-6.5,0-.194,5.662.809,8.313,1.786,10.071,1.813,3.264,4.327,5.092,7.535,5.092,3.712,0,5.692-1.857,7.615-5.148C122.3,31.845,123.4,28.483,123.009,23.6Z" transform="translate(-35.439 -17.854)" fill="#fff"/>
            <path id="Path_27191" data-name="Path 27191" d="M113.249,17.86a5.745,5.745,0,0,1,3.693,4.694c0-.009,1.663,0,1.663,0s-.009,14.928-.009,14.933a9.436,9.436,0,0,0,.885,4.3c0,.007,5.107-3.153,5.113-3.145a9.021,9.021,0,0,1-.617-3.014c-.007,0,0-5.092,0-5.092h6.28l1.34-4.7h-7.62V22.555H136.93V38.173h5.377V22.553h6.968s-.785-3.322-.773-3.307a2.006,2.006,0,0,0-2.214-1.393s-8.971,0-8.971,0Z" transform="translate(-28.236 -17.854)" fill="#fff"/>
          </g>
          <g id="Group_15864" data-name="Group 15864" transform="translate(0 22.312)">
            <rect id="Rectangle_3592" data-name="Rectangle 3592" width="18.688" height="1.267" transform="translate(99.019)" fill="#fff"/>
            <path id="Path_27192" data-name="Path 27192" d="M33.783,37.848h93.135V39.1l-93.135.015Z" transform="translate(-33.783 -37.847)" fill="#fff" fill-rule="evenodd"/>
          </g>
        </g>
      </g>
      <path id="Path_27193" data-name="Path 27193" d="M147.657,36.813a2.957,2.957,0,1,1-2.957-2.956A2.959,2.959,0,0,1,147.657,36.813Zm-5.221,0a2.261,2.261,0,1,0,2.262-2.261A2.263,2.263,0,0,0,142.436,36.813Zm1.765-.172v-.708h.689c.325,0,.388.208.388.347,0,.261-.142.36-.427.36h-.65Zm-.54,1.481h.54V37.087h.571c.41,0,.432.139.432.5a1.776,1.776,0,0,0,.059.535h.61v-.07c-.117-.046-.117-.142-.117-.528,0-.492-.117-.575-.336-.671a.632.632,0,0,0,.41-.628.744.744,0,0,0-.833-.748h-1.336v2.645Z" transform="translate(-21.262 -15.998)" fill="#fff" fill-rule="evenodd"/>
    </g>
  </g>
</svg>
