<svg id="Page-1" xmlns="http://www.w3.org/2000/svg" width="18.862" height="20.12" viewBox="0 0 18.862 20.12">
  <g id="Icon-Set">
    <path id="calendar" d="M317.8,374.09h1.257v1.258H317.8Zm0,2.515h1.257a1.258,1.258,0,0,0,1.258-1.257V374.09a1.258,1.258,0,0,0-1.258-1.258H317.8a1.258,1.258,0,0,0-1.257,1.258v1.258A1.258,1.258,0,0,0,317.8,376.6Zm-5.03-2.515h1.257v1.258h-1.257Zm0,2.515h1.257a1.258,1.258,0,0,0,1.257-1.257V374.09a1.258,1.258,0,0,0-1.257-1.258h-1.257a1.258,1.258,0,0,0-1.258,1.258v1.258a1.258,1.258,0,0,0,1.258,1.257Zm5.03-7.545h1.257v1.258H317.8Zm0,2.515h1.257a1.258,1.258,0,0,0,1.258-1.258V369.06a1.258,1.258,0,0,0-1.258-1.257H317.8a1.258,1.258,0,0,0-1.257,1.257v1.258a1.258,1.258,0,0,0,1.257,1.258Zm-5.03-2.515h1.257v1.258h-1.257Zm0,2.515h1.257a1.258,1.258,0,0,0,1.257-1.258V369.06a1.258,1.258,0,0,0-1.257-1.257h-1.257a1.258,1.258,0,0,0-1.258,1.257v1.258a1.258,1.258,0,0,0,1.258,1.258ZM326.6,364.03H310.257v-1.258a1.258,1.258,0,0,1,1.257-1.258h2.515v.629a.629.629,0,0,0,1.257,0v-.629h6.287v.629a.629.629,0,0,0,1.257,0v-.629h2.515a1.258,1.258,0,0,1,1.257,1.258v1.258Zm0,12.575a1.258,1.258,0,0,1-1.257,1.258H311.515a1.258,1.258,0,0,1-1.257-1.258V365.287H326.6V376.6Zm-1.257-16.347h-2.515v-.629a.629.629,0,0,0-1.257,0v.629h-6.287v-.629a.629.629,0,0,0-1.257,0v.629h-2.515A2.515,2.515,0,0,0,309,362.772V376.6a2.515,2.515,0,0,0,2.515,2.515h13.832a2.515,2.515,0,0,0,2.515-2.515V362.772a2.515,2.515,0,0,0-2.515-2.515Zm-2.515,8.8h1.258v1.258h-1.258Zm0,2.515h1.258a1.258,1.258,0,0,0,1.257-1.258V369.06a1.258,1.258,0,0,0-1.257-1.257h-1.258a1.258,1.258,0,0,0-1.257,1.257v1.258a1.258,1.258,0,0,0,1.257,1.258Zm0,2.515h1.258v1.258h-1.258Zm0,2.515h1.258a1.258,1.258,0,0,0,1.257-1.257V374.09a1.258,1.258,0,0,0-1.257-1.258h-1.258a1.258,1.258,0,0,0-1.257,1.258v1.258a1.258,1.258,0,0,0,1.257,1.257Z" transform="translate(-309 -359)" fill="#b7b7b7" fill-rule="evenodd"/>
  </g>
</svg>
