<svg id="Component_104_2" data-name="Component 104 – 2" xmlns="http://www.w3.org/2000/svg" width="26" height="26" viewBox="0 0 26 26">
  <rect id="Rectangle_3815" data-name="Rectangle 3815" width="26" height="26" rx="4" fill="#005957"/>
  <g id="Group_17394" data-name="Group 17394" transform="translate(6.052 7.344)">
    <g id="Group_289" data-name="Group 289">
      <g id="Group_285" data-name="Group 285">
        <g id="Group_64" data-name="Group 64">
          <g id="Group_63" data-name="Group 63">
            <g id="Group_62" data-name="Group 62">
              <path id="Path_531" data-name="Path 531" d="M11.763,1.841A5.639,5.639,0,0,0,13.436,1.2a.1.1,0,0,1,.071-.022A2.922,2.922,0,0,1,12.3,2.73,5.606,5.606,0,0,0,13.9,2.3c-.022.035-.035.053-.049.071A5.673,5.673,0,0,1,12.528,3.73a.121.121,0,0,0-.058.115,8,8,0,0,1-.022.978,8.34,8.34,0,0,1-.164,1.049A8.487,8.487,0,0,1,11.2,8.528a7.954,7.954,0,0,1-1.991,2.186A7.659,7.659,0,0,1,6.62,11.975a8.194,8.194,0,0,1-1.819.283c-.013,0-.035,0-.044.013H4.6a.08.08,0,0,0-.053-.013H4.173a.08.08,0,0,0-.053.013H3.974a1.008,1.008,0,0,0-.257-.022c-.354-.04-.708-.084-1.058-.155a8.331,8.331,0,0,1-2.5-1C.106,11.063.053,11.028,0,11a5.991,5.991,0,0,0,2.208-.186,5.664,5.664,0,0,0,1.974-1c-.111,0-.221-.018-.327-.031a2.785,2.785,0,0,1-1.04-.367A2.86,2.86,0,0,1,1.558,7.881c-.013-.04-.022-.066.04-.053A2.806,2.806,0,0,0,2.717,7.8c.027-.009.053,0,.08-.031l-.049-.013a2.826,2.826,0,0,1-1.6-1.018A2.763,2.763,0,0,1,.544,5c0-.044,0-.062.053-.035a3,3,0,0,0,1.151.332c.018,0,.044.009.049-.009s-.018-.027-.031-.04a2.981,2.981,0,0,1-.42-.363A2.871,2.871,0,0,1,.624,2.3a2.914,2.914,0,0,1,.292-.766c.027-.049.04-.044.071,0a7.628,7.628,0,0,0,.991,1.009A8.1,8.1,0,0,0,5.01,4.164a8.734,8.734,0,0,0,1.217.252c.177.027.354.035.531.049.058,0,.066,0,.058-.066a3.025,3.025,0,0,1-.053-.341,3.326,3.326,0,0,1,.053-.836A2.861,2.861,0,0,1,9.094,1,1.3,1.3,0,0,0,9.351.96h.487a1.415,1.415,0,0,0,.274.04,2.831,2.831,0,0,1,1.54.814.1.1,0,0,0,.111.027" transform="translate(0 -0.96)" fill="#fff"/>
            </g>
          </g>
        </g>
      </g>
    </g>
  </g>
</svg>
